<svg xmlns="http://www.w3.org/2000/svg" x="0px" y="0px" width="64" height="64" viewBox="0,0,256,256"
style="fill:#000000;">
<defs><linearGradient x1="27" y1="23.125" x2="27" y2="30.832" gradientUnits="userSpaceOnUse" id="color-1_48142_gr1"><stop offset="0" stop-color="#e8e8e8"></stop><stop offset="1" stop-color="#666666"></stop></linearGradient><linearGradient x1="32" y1="5.75" x2="32" y2="59.141" gradientUnits="userSpaceOnUse" id="color-2_48142_gr2"><stop offset="0" stop-color="#b0b0b0"></stop><stop offset="1" stop-color="#2e2e2e"></stop></linearGradient><linearGradient x1="32" y1="5.75" x2="32" y2="59.141" gradientUnits="userSpaceOnUse" id="color-3_48142_gr3"><stop offset="0" stop-color="#b0b0b0"></stop><stop offset="1" stop-color="#2e2e2e"></stop></linearGradient></defs><g fill="none" fill-rule="nonzero" stroke="none" stroke-width="1" stroke-linecap="butt" stroke-linejoin="miter" stroke-miterlimit="10" stroke-dasharray="" stroke-dashoffset="0" font-family="none" font-weight="none" font-size="none" text-anchor="none" style="mix-blend-mode: normal"><g transform="scale(4,4)"><path d="M24,30v-5c0,-0.552 0.447,-1 1,-1h5z" fill="url(#color-1_48142_gr1)"></path><path d="M32,6c-14.337,0 -26,11.663 -26,26c0,14.337 11.663,26 26,26c14.337,0 26,-11.663 26,-26c0,-14.337 -11.663,-26 -26,-26zM32,56c-13.234,0 -24,-10.767 -24,-24c0,-13.233 10.766,-24 24,-24c13.234,0 24,10.767 24,24c0,13.233 -10.767,24 -24,24z" fill="url(#color-2_48142_gr2)"></path><path d="M42,20.184v-0.184c0,-1.654 -1.346,-3 -3,-3h-14c-1.654,0 -3,1.346 -3,3v0.184c-1,0.415 -2,1.514 -2,2.816v21.069c0,1.135 0.628,2.16 1.64,2.675c0.433,0.221 0.899,0.329 1.363,0.329c0.622,0 1.239,-0.195 1.764,-0.577l5.471,-3.979c1.055,-0.766 2.471,-0.766 3.525,0l5.47,3.979c0.917,0.668 2.115,0.763 3.128,0.248c1.012,-0.515 1.64,-1.54 1.64,-2.675v-21.069c-0.001,-1.302 -1.001,-2.401 -2.001,-2.816zM25,19h14c0.552,0 1,0.448 1,1h-16c0,-0.552 0.448,-1 1,-1zM42,44.069c0,0.385 -0.204,0.718 -0.547,0.893c-0.344,0.173 -0.733,0.142 -1.044,-0.083l-5.471,-3.979c-1.758,-1.277 -4.119,-1.277 -5.877,0l-5.472,3.979c-0.309,0.225 -0.7,0.255 -1.043,0.083c-0.342,-0.175 -0.546,-0.508 -0.546,-0.893v-21.069c0,-0.552 0.448,-1 1,-1h18c0.552,0 1,0.448 1,1z" fill="url(#color-3_48142_gr3)"></path></g></g>
</svg>